<svg id="SvgjsSvg1539" width="714.2421875" height="649.7304382324219" xmlns="http://www.w3.org/2000/svg" version="1.1" xmlns:xlink="http://www.w3.org/1999/xlink" xmlns:svgjs="http://svgjs.com/svgjs"><defs id="SvgjsDefs1540"><marker id="SvgjsMarker1573" markerWidth="14" markerHeight="10" refX="10" refY="5" viewBox="0 0 14 10" orient="auto" markerUnits="userSpaceOnUse" stroke-dasharray="0,0"><path id="SvgjsPath1574" d="M0,0 L14,5 L0,10 L0,0" fill="#323232" stroke="#323232" stroke-width="1"></path></marker><marker id="SvgjsMarker1577" markerWidth="14" markerHeight="10" refX="10" refY="5" viewBox="0 0 14 10" orient="auto" markerUnits="userSpaceOnUse" stroke-dasharray="0,0"><path id="SvgjsPath1578" d="M0,0 L14,5 L0,10 L0,0" fill="#323232" stroke="#323232" stroke-width="1"></path></marker><marker id="SvgjsMarker1593" markerWidth="14" markerHeight="10" refX="10" refY="5" viewBox="0 0 14 10" orient="auto" markerUnits="userSpaceOnUse" stroke-dasharray="0,0"><path id="SvgjsPath1594" d="M0,0 L14,5 L0,10 L0,0" fill="#323232" stroke="#323232" stroke-width="1"></path></marker><marker id="SvgjsMarker1603" markerWidth="14" markerHeight="10" refX="10" refY="5" viewBox="0 0 14 10" orient="auto" markerUnits="userSpaceOnUse" stroke-dasharray="0,0"><path id="SvgjsPath1604" d="M0,0 L14,5 L0,10 L0,0" fill="#323232" stroke="#323232" stroke-width="1"></path></marker><marker id="SvgjsMarker1607" markerWidth="14" markerHeight="10" refX="10" refY="5" viewBox="0 0 14 10" orient="auto" markerUnits="userSpaceOnUse" stroke-dasharray="0,0"><path id="SvgjsPath1608" d="M0,0 L14,5 L0,10 L0,0" fill="#323232" stroke="#323232" stroke-width="1"></path></marker><marker id="SvgjsMarker1661" markerWidth="14" markerHeight="10" refX="10" refY="5" viewBox="0 0 14 10" orient="auto" markerUnits="userSpaceOnUse" stroke-dasharray="0,0"><path id="SvgjsPath1662" d="M0,0 L14,5 L0,10 L0,0" fill="#323232" stroke="#323232" stroke-width="1"></path></marker><marker id="SvgjsMarker1717" markerWidth="14" markerHeight="10" refX="10" refY="5" viewBox="0 0 14 10" orient="auto" markerUnits="userSpaceOnUse" stroke-dasharray="0,0"><path id="SvgjsPath1718" d="M0,0 L14,5 L0,10 L0,0" fill="#323232" stroke="#323232" stroke-width="1"></path></marker><marker id="SvgjsMarker1721" markerWidth="14" markerHeight="10" refX="10" refY="5" viewBox="0 0 14 10" orient="auto" markerUnits="userSpaceOnUse" stroke-dasharray="0,0"><path id="SvgjsPath1722" d="M0,0 L14,5 L0,10 L0,0" fill="#323232" stroke="#323232" stroke-width="1"></path></marker><marker id="SvgjsMarker1725" markerWidth="14" markerHeight="10" refX="10" refY="5" viewBox="0 0 14 10" orient="auto" markerUnits="userSpaceOnUse" stroke-dasharray="0,0"><path id="SvgjsPath1726" d="M0,0 L14,5 L0,10 L0,0" fill="#323232" stroke="#323232" stroke-width="1"></path></marker><marker id="SvgjsMarker1729" markerWidth="14" markerHeight="10" refX="10" refY="5" viewBox="0 0 14 10" orient="auto" markerUnits="userSpaceOnUse" stroke-dasharray="0,0"><path id="SvgjsPath1730" d="M0,0 L14,5 L0,10 L0,0" fill="#323232" stroke="#323232" stroke-width="1"></path></marker><marker id="SvgjsMarker1733" markerWidth="14" markerHeight="10" refX="10" refY="5" viewBox="0 0 14 10" orient="auto" markerUnits="userSpaceOnUse" stroke-dasharray="0,0"><path id="SvgjsPath1734" d="M0,0 L14,5 L0,10 L0,0" fill="#323232" stroke="#323232" stroke-width="1"></path></marker><marker id="SvgjsMarker1737" markerWidth="14" markerHeight="10" refX="10" refY="5" viewBox="0 0 14 10" orient="auto" markerUnits="userSpaceOnUse" stroke-dasharray="0,0"><path id="SvgjsPath1738" d="M0,0 L14,5 L0,10 L0,0" fill="#323232" stroke="#323232" stroke-width="1"></path></marker><marker id="SvgjsMarker1741" markerWidth="14" markerHeight="10" refX="10" refY="5" viewBox="0 0 14 10" orient="auto" markerUnits="userSpaceOnUse" stroke-dasharray="0,0"><path id="SvgjsPath1742" d="M0,0 L14,5 L0,10 L0,0" fill="#323232" stroke="#323232" stroke-width="1"></path></marker><marker id="SvgjsMarker1745" markerWidth="14" markerHeight="10" refX="10" refY="5" viewBox="0 0 14 10" orient="auto" markerUnits="userSpaceOnUse" stroke-dasharray="0,0"><path id="SvgjsPath1746" d="M0,0 L14,5 L0,10 L0,0" fill="#323232" stroke="#323232" stroke-width="1"></path></marker><marker id="SvgjsMarker1749" markerWidth="14" markerHeight="10" refX="10" refY="5" viewBox="0 0 14 10" orient="auto" markerUnits="userSpaceOnUse" stroke-dasharray="0,0"><path id="SvgjsPath1750" d="M0,0 L14,5 L0,10 L0,0" fill="#323232" stroke="#323232" stroke-width="1"></path></marker><marker id="SvgjsMarker1787" markerWidth="14" markerHeight="10" refX="10" refY="5" viewBox="0 0 14 10" orient="auto" markerUnits="userSpaceOnUse" stroke-dasharray="0,0"><path id="SvgjsPath1788" d="M0,0 L14,5 L0,10 L0,0" fill="#323232" stroke="#323232" stroke-width="1"></path></marker><marker id="SvgjsMarker1791" markerWidth="14" markerHeight="10" refX="10" refY="5" viewBox="0 0 14 10" orient="auto" markerUnits="userSpaceOnUse" stroke-dasharray="0,0"><path id="SvgjsPath1792" d="M0,0 L14,5 L0,10 L0,0" fill="#323232" stroke="#323232" stroke-width="1"></path></marker><marker id="SvgjsMarker1795" markerWidth="14" markerHeight="10" refX="10" refY="5" viewBox="0 0 14 10" orient="auto" markerUnits="userSpaceOnUse" stroke-dasharray="0,0"><path id="SvgjsPath1796" d="M0,0 L14,5 L0,10 L0,0" fill="#323232" stroke="#323232" stroke-width="1"></path></marker><marker id="SvgjsMarker1799" markerWidth="14" markerHeight="10" refX="10" refY="5" viewBox="0 0 14 10" orient="auto" markerUnits="userSpaceOnUse" stroke-dasharray="0,0"><path id="SvgjsPath1800" d="M0,0 L14,5 L0,10 L0,0" fill="#323232" stroke="#323232" stroke-width="1"></path></marker><marker id="SvgjsMarker1803" markerWidth="14" markerHeight="10" refX="10" refY="5" viewBox="0 0 14 10" orient="auto" markerUnits="userSpaceOnUse" stroke-dasharray="0,0"><path id="SvgjsPath1804" d="M0,0 L14,5 L0,10 L0,0" fill="#323232" stroke="#323232" stroke-width="1"></path></marker></defs><g id="SvgjsG1541" transform="translate(48.247398376464844,488.734375)"><path id="SvgjsPath1542" d="M 0 0L 640.7513046264648 0L 640.7513046264648 136L 0 136Z" stroke-dasharray="10,6" stroke="rgba(70,105,234,1)" stroke-width="2" fill-opacity="1" fill="#ffffff"></path><g id="SvgjsG1543"><text id="SvgjsText1544" font-family="微软雅黑" text-anchor="middle" font-size="13px" width="621px" fill="#4669ea" font-weight="400" align="bottom" lineHeight="125%" anchor="middle" family="微软雅黑" size="13px" weight="400" font-style="" opacity="1" y="117.375" transform="rotate(0)"><tspan id="SvgjsTspan1545" dy="16" x="320.5"><tspan id="SvgjsTspan1546" style="text-decoration:;">二级菜单（其余页面）</tspan></tspan></text></g></g><g id="SvgjsG1547" transform="translate(94.99870300292969,352.9010543823242)"><path id="SvgjsPath1548" d="M 0 0L 373.9166717529297 0L 373.9166717529297 111L 0 111Z" stroke-dasharray="10,6" stroke="rgba(70,105,234,1)" stroke-width="2" fill-opacity="1" fill="#ffffff"></path><g id="SvgjsG1549"><text id="SvgjsText1550" font-family="微软雅黑" text-anchor="middle" font-size="13px" width="354px" fill="#4669ea" font-weight="400" align="bottom" lineHeight="125%" anchor="middle" family="微软雅黑" size="13px" weight="400" font-style="" opacity="1" y="92.375" transform="rotate(0)"><tspan id="SvgjsTspan1551" dy="16" x="187"><tspan id="SvgjsTspan1552" style="text-decoration:;">二级菜单（系统页面）</tspan></tspan></text></g></g><g id="SvgjsG1553" transform="translate(500.41232554117846,24.99738883972168)"><path id="SvgjsPath1554" d="M 0 0L 166.58637746175123 0L 166.58637746175123 289.40366315841675L 0 289.40366315841675Z" stroke-dasharray="10,6" stroke="rgba(70,105,234,1)" stroke-width="2" fill-opacity="1" fill="#ffffff"></path><g id="SvgjsG1555"><text id="SvgjsText1556" font-family="微软雅黑" text-anchor="middle" font-size="13px" width="147px" fill="#4669ea" font-weight="400" align="bottom" lineHeight="125%" anchor="middle" family="微软雅黑" size="13px" weight="400" font-style="" opacity="1" y="270.77866315841675" transform="rotate(0)"><tspan id="SvgjsTspan1557" dy="16" x="83.5"><tspan id="SvgjsTspan1558" style="text-decoration:;">一级菜单（弹出式）</tspan></tspan></text></g></g><g id="SvgjsG1559" transform="translate(158.9987030029297,24.99738883972168)"><path id="SvgjsPath1560" d="M 0 0L 152.6649271647135 0L 152.6649271647135 174.83334922790527L 0 174.83334922790527Z" stroke-dasharray="10,6" stroke="rgba(70,105,234,1)" stroke-width="2" fill-opacity="1" fill="#ffffff"></path><g id="SvgjsG1561"><text id="SvgjsText1562" font-family="微软雅黑" text-anchor="middle" font-size="13px" width="133px" fill="#4669ea" font-weight="400" align="bottom" lineHeight="125%" anchor="middle" family="微软雅黑" size="13px" weight="400" font-style="" opacity="1" y="156.20834922790527" transform="rotate(0)"><tspan id="SvgjsTspan1563" dy="16" x="76.5"><tspan id="SvgjsTspan1564" style="text-decoration:;">首页菜单</tspan></tspan></text></g></g><g id="SvgjsG1565" transform="translate(57.99870300292969,38.49740982055664)"><path id="SvgjsPath1566" d="M 0 4Q 0 0 4 0L 87 0Q 91 0 91 4L 91 28.666664123535156Q 91 32.666664123535156 87 32.666664123535156L 4 32.666664123535156Q 0 32.666664123535156 0 28.666664123535156Z" stroke="rgba(33,41,48,1)" stroke-width="2" fill-opacity="1" fill="#ffffff"></path><g id="SvgjsG1567"><text id="SvgjsText1568" font-family="微软雅黑" text-anchor="middle" font-size="16px" width="71px" fill="#323232" font-weight="400" align="middle" lineHeight="125%" anchor="middle" family="微软雅黑" size="16px" weight="400" font-style="" opacity="1" y="2.333332061767578" transform="rotate(0)"><tspan id="SvgjsTspan1569" dy="20" x="45.5"><tspan id="SvgjsTspan1570" style="text-decoration:;">首页</tspan></tspan></text></g></g><g id="SvgjsG1571"><path id="SvgjsPath1572" d="M24.998703002929688 54.497406005859375L41.49870300292969 54.497406005859375L41.49870300292969 54.83074188232422L54.39870300292969 54.83074188232422" stroke="#323232" stroke-width="2" fill="none" marker-end="url(#SvgjsMarker1573)"></path></g><g id="SvgjsG1575"><path id="SvgjsPath1576" d="M149.9987030029297 54.83074188232422L170.4987030029297 54.83074188232422L170.4987030029297 54.83074188232422L188.3987030029297 54.83074188232422" stroke="#323232" stroke-width="2" fill="none" marker-end="url(#SvgjsMarker1577)"></path></g><g id="SvgjsG1579" transform="translate(191.9987030029297,38.49740982055664)"><path id="SvgjsPath1580" d="M 0 4Q 0 0 4 0L 101 0Q 105 0 105 4L 105 28.666664123535156Q 105 32.666664123535156 101 32.666664123535156L 4 32.666664123535156Q 0 32.666664123535156 0 28.666664123535156Z" stroke="rgba(33,41,48,1)" stroke-width="2" fill-opacity="1" fill="#ffffff"></path><g id="SvgjsG1581"><text id="SvgjsText1582" font-family="微软雅黑" text-anchor="middle" font-size="16px" width="85px" fill="#323232" font-weight="400" align="middle" lineHeight="125%" anchor="middle" family="微软雅黑" size="16px" weight="400" font-style="" opacity="1" y="2.333332061767578" transform="rotate(0)"><tspan id="SvgjsTspan1583" dy="20" x="52.5"><tspan id="SvgjsTspan1584" style="text-decoration:;">运行项目</tspan></tspan></text></g></g><g id="SvgjsG1585" transform="translate(191.9987030029297,84.49740982055664)"><path id="SvgjsPath1586" d="M 0 4Q 0 0 4 0L 101 0Q 105 0 105 4L 105 28.666664123535156Q 105 32.666664123535156 101 32.666664123535156L 4 32.666664123535156Q 0 32.666664123535156 0 28.666664123535156Z" stroke="rgba(33,41,48,1)" stroke-width="2" fill-opacity="1" fill="#ffffff"></path><g id="SvgjsG1587"><text id="SvgjsText1588" font-family="微软雅黑" text-anchor="middle" font-size="16px" width="85px" fill="#323232" font-weight="400" align="middle" lineHeight="125%" anchor="middle" family="微软雅黑" size="16px" weight="400" font-style="" opacity="1" y="2.333332061767578" transform="rotate(0)"><tspan id="SvgjsTspan1589" dy="20" x="52.5"><tspan id="SvgjsTspan1590" style="text-decoration:;">系统设置</tspan></tspan></text></g></g><g id="SvgjsG1591"><path id="SvgjsPath1592" d="M297.9987030029297 54.83074188232422L411.9987030029297 54.83074188232422L411.9987030029297 54.83074188232422L523.3987030029297 54.83074188232422" stroke="#323232" stroke-width="2" fill="none" marker-end="url(#SvgjsMarker1593)"></path></g><g id="SvgjsG1595" transform="translate(191.9987030029297,134.49740982055664)"><path id="SvgjsPath1596" d="M 0 4Q 0 0 4 0L 101 0Q 105 0 105 4L 105 28.666664123535156Q 105 32.666664123535156 101 32.666664123535156L 4 32.666664123535156Q 0 32.666664123535156 0 28.666664123535156Z" stroke="rgba(33,41,48,1)" stroke-width="2" fill-opacity="1" fill="#ffffff"></path><g id="SvgjsG1597"><text id="SvgjsText1598" font-family="微软雅黑" text-anchor="middle" font-size="16px" width="85px" fill="#323232" font-weight="400" align="middle" lineHeight="125%" anchor="middle" family="微软雅黑" size="16px" weight="400" font-style="" opacity="1" y="2.333332061767578" transform="rotate(0)"><tspan id="SvgjsTspan1599" dy="20" x="52.5"><tspan id="SvgjsTspan1600" style="text-decoration:;">用户管理</tspan></tspan></text></g></g><g id="SvgjsG1601"><path id="SvgjsPath1602" d="M149.9987030029297 54.83074188232422L170.4987030029297 54.83074188232422L170.4987030029297 100.83074188232422L188.3987030029297 100.83074188232422" stroke="#323232" stroke-width="2" fill="none" marker-end="url(#SvgjsMarker1603)"></path></g><g id="SvgjsG1605"><path id="SvgjsPath1606" d="M149.9987030029297 54.83074188232422L170.4987030029297 54.83074188232422L170.4987030029297 150.83074188232422L188.3987030029297 150.83074188232422" stroke="#323232" stroke-width="2" fill="none" marker-end="url(#SvgjsMarker1607)"></path></g><g id="SvgjsG1609" transform="translate(526.9987030029297,38.49740982055664)"><path id="SvgjsPath1610" d="M 0 4Q 0 0 4 0L 101 0Q 105 0 105 4L 105 28.666664123535156Q 105 32.666664123535156 101 32.666664123535156L 4 32.666664123535156Q 0 32.666664123535156 0 28.666664123535156Z" stroke="rgba(33,41,48,1)" stroke-width="2" fill-opacity="1" fill="#ffffff"></path><g id="SvgjsG1611"><text id="SvgjsText1612" font-family="微软雅黑" text-anchor="middle" font-size="16px" width="85px" fill="#323232" font-weight="400" align="middle" lineHeight="125%" anchor="middle" family="微软雅黑" size="16px" weight="400" font-style="" opacity="1" y="2.333332061767578" transform="rotate(0)"><tspan id="SvgjsTspan1613" dy="20" x="52.5"><tspan id="SvgjsTspan1614" style="text-decoration:;">控制台</tspan></tspan></text></g></g><g id="SvgjsG1615" transform="translate(526.9987030029297,81.99740982055664)"><path id="SvgjsPath1616" d="M 0 4Q 0 0 4 0L 101 0Q 105 0 105 4L 105 28.666664123535156Q 105 32.666664123535156 101 32.666664123535156L 4 32.666664123535156Q 0 32.666664123535156 0 28.666664123535156Z" stroke="rgba(33,41,48,1)" stroke-width="2" fill-opacity="1" fill="#ffffff"></path><g id="SvgjsG1617"><text id="SvgjsText1618" font-family="微软雅黑" text-anchor="middle" font-size="16px" width="85px" fill="#323232" font-weight="400" align="middle" lineHeight="125%" anchor="middle" family="微软雅黑" size="16px" weight="400" font-style="" opacity="1" y="2.333332061767578" transform="rotate(0)"><tspan id="SvgjsTspan1619" dy="20" x="52.5"><tspan id="SvgjsTspan1620" style="text-decoration:;">系统设置</tspan></tspan></text></g></g><g id="SvgjsG1621" transform="translate(526.9987030029297,125.49740982055664)"><path id="SvgjsPath1622" d="M 0 4Q 0 0 4 0L 101 0Q 105 0 105 4L 105 28.666664123535156Q 105 32.666664123535156 101 32.666664123535156L 4 32.666664123535156Q 0 32.666664123535156 0 28.666664123535156Z" stroke="rgba(33,41,48,1)" stroke-width="2" fill-opacity="1" fill="#ffffff"></path><g id="SvgjsG1623"><text id="SvgjsText1624" font-family="微软雅黑" text-anchor="middle" font-size="16px" width="85px" fill="#323232" font-weight="400" align="middle" lineHeight="125%" anchor="middle" family="微软雅黑" size="16px" weight="400" font-style="" opacity="1" y="2.333332061767578" transform="rotate(0)"><tspan id="SvgjsTspan1625" dy="20" x="52.5"><tspan id="SvgjsTspan1626" style="text-decoration:;">报警与事件</tspan></tspan></text></g></g><g id="SvgjsG1627" transform="translate(526.9987030029297,167.1640739440918)"><path id="SvgjsPath1628" d="M 0 4Q 0 0 4 0L 101 0Q 105 0 105 4L 105 28.666664123535156Q 105 32.666664123535156 101 32.666664123535156L 4 32.666664123535156Q 0 32.666664123535156 0 28.666664123535156Z" stroke="rgba(33,41,48,1)" stroke-width="2" fill-opacity="1" fill="#ffffff"></path><g id="SvgjsG1629"><text id="SvgjsText1630" font-family="微软雅黑" text-anchor="middle" font-size="16px" width="85px" fill="#323232" font-weight="400" align="middle" lineHeight="125%" anchor="middle" family="微软雅黑" size="16px" weight="400" font-style="" opacity="1" y="2.333332061767578" transform="rotate(0)"><tspan id="SvgjsTspan1631" dy="20" x="52.5"><tspan id="SvgjsTspan1632" style="text-decoration:;">监控</tspan></tspan></text></g></g><g id="SvgjsG1633" transform="translate(526.9987030029297,208.83073806762695)"><path id="SvgjsPath1634" d="M 0 4Q 0 0 4 0L 101 0Q 105 0 105 4L 105 28.666664123535156Q 105 32.666664123535156 101 32.666664123535156L 4 32.666664123535156Q 0 32.666664123535156 0 28.666664123535156Z" stroke="rgba(33,41,48,1)" stroke-width="2" fill-opacity="1" fill="#ffffff"></path><g id="SvgjsG1635"><text id="SvgjsText1636" font-family="微软雅黑" text-anchor="middle" font-size="16px" width="85px" fill="#323232" font-weight="400" align="middle" lineHeight="125%" anchor="middle" family="微软雅黑" size="16px" weight="400" font-style="" opacity="1" y="2.333332061767578" transform="rotate(0)"><tspan id="SvgjsTspan1637" dy="20" x="52.5"><tspan id="SvgjsTspan1638" style="text-decoration:;">工艺配方</tspan></tspan></text></g></g><g id="SvgjsG1639" transform="translate(526.9987030029297,252.33073806762695)"><path id="SvgjsPath1640" d="M 0 4Q 0 0 4 0L 101 0Q 105 0 105 4L 105 28.666664123535156Q 105 32.666664123535156 101 32.666664123535156L 4 32.666664123535156Q 0 32.666664123535156 0 28.666664123535156Z" stroke="rgba(33,41,48,1)" stroke-width="2" fill-opacity="1" fill="#ffffff"></path><g id="SvgjsG1641"><text id="SvgjsText1642" font-family="微软雅黑" text-anchor="middle" font-size="16px" width="85px" fill="#323232" font-weight="400" align="middle" lineHeight="125%" anchor="middle" family="微软雅黑" size="16px" weight="400" font-style="" opacity="1" y="2.333332061767578" transform="rotate(0)"><tspan id="SvgjsTspan1643" dy="20" x="52.5"><tspan id="SvgjsTspan1644" style="text-decoration:;">帮助</tspan></tspan></text></g></g><g id="SvgjsG1645" transform="translate(61.99870300292969,555.8307304382324)"><path id="SvgjsPath1646" d="M 0 4Q 0 0 4 0L 49 0Q 53 0 53 4L 53 38.00000858306885Q 53 42.00000858306885 49 42.00000858306885L 4 42.00000858306885Q 0 42.00000858306885 0 38.00000858306885Z" stroke="rgba(33,41,48,1)" stroke-width="2" fill-opacity="1" fill="#ffffff"></path><g id="SvgjsG1647"><text id="SvgjsText1648" font-family="微软雅黑" text-anchor="middle" font-size="16px" width="33px" fill="#323232" font-weight="400" align="middle" lineHeight="125%" anchor="middle" family="微软雅黑" size="16px" weight="400" font-style="" opacity="1" y="7.000004291534424" transform="rotate(0)"><tspan id="SvgjsTspan1649" dy="20" x="26.5"><tspan id="SvgjsTspan1650" style="text-decoration:;">首页</tspan></tspan></text></g></g><g id="SvgjsG1651" transform="translate(122.91493479410806,555.8307304382324)"><path id="SvgjsPath1652" d="M 0 4Q 0 0 4 0L 51 0Q 55 0 55 4L 55 38.00000858306885Q 55 42.00000858306885 51 42.00000858306885L 4 42.00000858306885Q 0 42.00000858306885 0 38.00000858306885Z" stroke="rgba(33,41,48,1)" stroke-width="2" fill-opacity="1" fill="#ffffff"></path><g id="SvgjsG1653"><text id="SvgjsText1654" font-family="微软雅黑" text-anchor="middle" font-size="16px" width="35px" fill="#323232" font-weight="400" align="middle" lineHeight="125%" anchor="middle" family="微软雅黑" size="16px" weight="400" font-style="" opacity="1" y="-2.999995708465576" transform="rotate(0)"><tspan id="SvgjsTspan1655" dy="20" x="27.5"><tspan id="SvgjsTspan1656" style="text-decoration:;">返回</tspan></tspan><tspan id="SvgjsTspan1657" dy="20" x="27.5"><tspan id="SvgjsTspan1658" style="text-decoration:;">前页</tspan></tspan></text></g></g><g id="SvgjsG1659"><path id="SvgjsPath1660" d="M297.9987030029297 54.83074188232422L483.9987030029297 54.83074188232422L483.9987030029297 503.8307304382324L88.49870300292969 503.8307304382324L88.49870300292969 552.2307304382324" stroke="#323232" stroke-width="2" fill="none" marker-end="url(#SvgjsMarker1661)"></path></g><g id="SvgjsG1663" transform="translate(185.83116658528644,555.8307304382324)"><path id="SvgjsPath1664" d="M 0 4Q 0 0 4 0L 51 0Q 55 0 55 4L 55 38.00000858306885Q 55 42.00000858306885 51 42.00000858306885L 4 42.00000858306885Q 0 42.00000858306885 0 38.00000858306885Z" stroke="rgba(33,41,48,1)" stroke-width="2" fill-opacity="1" fill="#ffffff"></path><g id="SvgjsG1665"><text id="SvgjsText1666" font-family="微软雅黑" text-anchor="middle" font-size="16px" width="35px" fill="#323232" font-weight="400" align="middle" lineHeight="125%" anchor="middle" family="微软雅黑" size="16px" weight="400" font-style="" opacity="1" y="-2.999995708465576" transform="rotate(0)"><tspan id="SvgjsTspan1667" dy="20" x="27.5"><tspan id="SvgjsTspan1668" style="text-decoration:;">控制</tspan></tspan><tspan id="SvgjsTspan1669" dy="20" x="27.5"><tspan id="SvgjsTspan1670" style="text-decoration:;">台</tspan></tspan></text></g></g><g id="SvgjsG1671" transform="translate(248.74739837646484,555.8307304382324)"><path id="SvgjsPath1672" d="M 0 4Q 0 0 4 0L 51 0Q 55 0 55 4L 55 38.00000858306885Q 55 42.00000858306885 51 42.00000858306885L 4 42.00000858306885Q 0 42.00000858306885 0 38.00000858306885Z" stroke="rgba(33,41,48,1)" stroke-width="2" fill-opacity="1" fill="#ffffff"></path><g id="SvgjsG1673"><text id="SvgjsText1674" font-family="微软雅黑" text-anchor="middle" font-size="16px" width="35px" fill="#323232" font-weight="400" align="middle" lineHeight="125%" anchor="middle" family="微软雅黑" size="16px" weight="400" font-style="" opacity="1" y="7.000004291534424" transform="rotate(0)"><tspan id="SvgjsTspan1675" dy="20" x="27.5"><tspan id="SvgjsTspan1676" style="text-decoration:;">合模</tspan></tspan></text></g></g><g id="SvgjsG1677" transform="translate(311.6636301676432,555.8307304382324)"><path id="SvgjsPath1678" d="M 0 4Q 0 0 4 0L 51 0Q 55 0 55 4L 55 38.00000858306885Q 55 42.00000858306885 51 42.00000858306885L 4 42.00000858306885Q 0 42.00000858306885 0 38.00000858306885Z" stroke="rgba(33,41,48,1)" stroke-width="2" fill-opacity="1" fill="#ffffff"></path><g id="SvgjsG1679"><text id="SvgjsText1680" font-family="微软雅黑" text-anchor="middle" font-size="16px" width="35px" fill="#323232" font-weight="400" align="middle" lineHeight="125%" anchor="middle" family="微软雅黑" size="16px" weight="400" font-style="" opacity="1" y="7.000004291534424" transform="rotate(0)"><tspan id="SvgjsTspan1681" dy="20" x="27.5"><tspan id="SvgjsTspan1682" style="text-decoration:;">移模</tspan></tspan></text></g></g><g id="SvgjsG1683" transform="translate(374.5798619588216,555.8307304382324)"><path id="SvgjsPath1684" d="M 0 4Q 0 0 4 0L 51 0Q 55 0 55 4L 55 38.00000858306885Q 55 42.00000858306885 51 42.00000858306885L 4 42.00000858306885Q 0 42.00000858306885 0 38.00000858306885Z" stroke="rgba(33,41,48,1)" stroke-width="2" fill-opacity="1" fill="#ffffff"></path><g id="SvgjsG1685"><text id="SvgjsText1686" font-family="微软雅黑" text-anchor="middle" font-size="16px" width="35px" fill="#323232" font-weight="400" align="middle" lineHeight="125%" anchor="middle" family="微软雅黑" size="16px" weight="400" font-style="" opacity="1" y="-2.999995708465576" transform="rotate(0)"><tspan id="SvgjsTspan1687" dy="20" x="27.5"><tspan id="SvgjsTspan1688" style="text-decoration:;">挤出</tspan></tspan><tspan id="SvgjsTspan1689" dy="20" x="27.5"><tspan id="SvgjsTspan1690" style="text-decoration:;">机</tspan></tspan></text></g></g><g id="SvgjsG1691" transform="translate(563.3285573323568,555.8307304382324)"><path id="SvgjsPath1692" d="M 0 4Q 0 0 4 0L 51 0Q 55 0 55 4L 55 38.00000858306885Q 55 42.00000858306885 51 42.00000858306885L 4 42.00000858306885Q 0 42.00000858306885 0 38.00000858306885Z" stroke="rgba(33,41,48,1)" stroke-width="2" fill-opacity="1" fill="#ffffff"></path><g id="SvgjsG1693"><text id="SvgjsText1694" font-family="微软雅黑" text-anchor="middle" font-size="16px" width="35px" fill="#323232" font-weight="400" align="middle" lineHeight="125%" anchor="middle" family="微软雅黑" size="16px" weight="400" font-style="" opacity="1" y="7.000004291534424" transform="rotate(0)"><tspan id="SvgjsTspan1695" dy="20" x="27.5"><tspan id="SvgjsTspan1696" style="text-decoration:;">时间</tspan></tspan></text></g></g><g id="SvgjsG1697" transform="translate(437.49609375,555.8307304382324)"><path id="SvgjsPath1698" d="M 0 4Q 0 0 4 0L 51 0Q 55 0 55 4L 55 38.00000858306885Q 55 42.00000858306885 51 42.00000858306885L 4 42.00000858306885Q 0 42.00000858306885 0 38.00000858306885Z" stroke="rgba(33,41,48,1)" stroke-width="2" fill-opacity="1" fill="#ffffff"></path><g id="SvgjsG1699"><text id="SvgjsText1700" font-family="微软雅黑" text-anchor="middle" font-size="16px" width="35px" fill="#323232" font-weight="400" align="middle" lineHeight="125%" anchor="middle" family="微软雅黑" size="16px" weight="400" font-style="" opacity="1" y="7.000004291534424" transform="rotate(0)"><tspan id="SvgjsTspan1701" dy="20" x="27.5"><tspan id="SvgjsTspan1702" style="text-decoration:;">壁厚</tspan></tspan></text></g></g><g id="SvgjsG1703" transform="translate(500.41232554117846,555.8307304382324)"><path id="SvgjsPath1704" d="M 0 4Q 0 0 4 0L 51 0Q 55 0 55 4L 55 38.00000858306885Q 55 42.00000858306885 51 42.00000858306885L 4 42.00000858306885Q 0 42.00000858306885 0 38.00000858306885Z" stroke="rgba(33,41,48,1)" stroke-width="2" fill-opacity="1" fill="#ffffff"></path><g id="SvgjsG1705"><text id="SvgjsText1706" font-family="微软雅黑" text-anchor="middle" font-size="16px" width="35px" fill="#323232" font-weight="400" align="middle" lineHeight="125%" anchor="middle" family="微软雅黑" size="16px" weight="400" font-style="" opacity="1" y="7.000004291534424" transform="rotate(0)"><tspan id="SvgjsTspan1707" dy="20" x="27.5"><tspan id="SvgjsTspan1708" style="text-decoration:;">温度</tspan></tspan></text></g></g><g id="SvgjsG1709" transform="translate(627.49609375,555.8307304382324)"><path id="SvgjsPath1710" d="M 0 4Q 0 0 4 0L 51 0Q 55 0 55 4L 55 38.00000858306885Q 55 42.00000858306885 51 42.00000858306885L 4 42.00000858306885Q 0 42.00000858306885 0 38.00000858306885Z" stroke="rgba(33,41,48,1)" stroke-width="2" fill-opacity="1" fill="#ffffff"></path><g id="SvgjsG1711"><text id="SvgjsText1712" font-family="微软雅黑" text-anchor="middle" font-size="16px" width="35px" fill="#323232" font-weight="400" align="middle" lineHeight="125%" anchor="middle" family="微软雅黑" size="16px" weight="400" font-style="" opacity="1" y="7.000004291534424" transform="rotate(0)"><tspan id="SvgjsTspan1713" dy="20" x="27.5"><tspan id="SvgjsTspan1714" style="text-decoration:;">按钮</tspan></tspan></text></g></g><g id="SvgjsG1715"><path id="SvgjsPath1716" d="M213.33116658528644 503.41407203674316L213.33116658528644 529.6224012374878L213.33116658528644 529.6224012374878L213.33116658528644 552.2307304382324" stroke="#323232" stroke-width="2" fill="none" marker-end="url(#SvgjsMarker1717)"></path></g><g id="SvgjsG1719"><path id="SvgjsPath1720" d="M276.24739837646484 505.41407203674316L276.24739837646484 530.6224012374878L276.24739837646484 530.6224012374878L276.24739837646484 552.2307304382324" stroke="#323232" stroke-width="2" fill="none" marker-end="url(#SvgjsMarker1721)"></path></g><g id="SvgjsG1723"><path id="SvgjsPath1724" d="M374.5798619588216 504.41407203674316L374.5798619588216 505.41407203674316L464.99609375 505.41407203674316L464.99609375 552.2307304382324" stroke="#323232" stroke-width="2" fill="none" marker-end="url(#SvgjsMarker1725)"></path></g><g id="SvgjsG1727"><path id="SvgjsPath1728" d="M339.1636301676432 503.41407203674316L339.1636301676432 529.6224012374878L339.1636301676432 529.6224012374878L339.1636301676432 552.2307304382324" stroke="#323232" stroke-width="2" fill="none" marker-end="url(#SvgjsMarker1729)"></path></g><g id="SvgjsG1731"><path id="SvgjsPath1732" d="M527.9123255411785 504.7474060058594L527.9123255411785 530.2890682220459L527.9123255411785 530.2890682220459L527.9123255411785 552.2307304382324" stroke="#323232" stroke-width="2" fill="none" marker-end="url(#SvgjsMarker1733)"></path></g><g id="SvgjsG1735"><path id="SvgjsPath1736" d="M402.0798619588216 505.41407012939453L402.0798619588216 530.6224002838135L402.0798619588216 530.6224002838135L402.0798619588216 552.2307304382324" stroke="#323232" stroke-width="2" fill="none" marker-end="url(#SvgjsMarker1737)"></path></g><g id="SvgjsG1739"><path id="SvgjsPath1740" d="M463.9153747558594 504.7474060058594L654.99609375 504.7474060058594L654.99609375 552.2307304382324" stroke="#323232" stroke-width="2" fill="none" marker-end="url(#SvgjsMarker1741)"></path></g><g id="SvgjsG1743"><path id="SvgjsPath1744" d="M150.41493479410806 506.41407203674316L151.1636301676432 531.1224012374878L150.41493479410806 531.1224012374878L150.41493479410806 552.2307304382324" stroke="#323232" stroke-width="2" fill="none" marker-end="url(#SvgjsMarker1745)"></path></g><g id="SvgjsG1747"><path id="SvgjsPath1748" d="M590.8285573323568 502.7474060058594L590.8285573323568 529.2890682220459L590.8285573323568 529.2890682220459L590.8285573323568 552.2307304382324" stroke="#323232" stroke-width="2" fill="none" marker-end="url(#SvgjsMarker1749)"></path></g><g id="SvgjsG1751" transform="translate(115.99870300292969,395.8307304382324)"><path id="SvgjsPath1752" d="M 0 4Q 0 0 4 0L 49 0Q 53 0 53 4L 53 38.00000858306885Q 53 42.00000858306885 49 42.00000858306885L 4 42.00000858306885Q 0 42.00000858306885 0 38.00000858306885Z" stroke="rgba(33,41,48,1)" stroke-width="2" fill-opacity="1" fill="#ffffff"></path><g id="SvgjsG1753"><text id="SvgjsText1754" font-family="微软雅黑" text-anchor="middle" font-size="16px" width="33px" fill="#323232" font-weight="400" align="middle" lineHeight="125%" anchor="middle" family="微软雅黑" size="16px" weight="400" font-style="" opacity="1" y="7.000004291534424" transform="rotate(0)"><tspan id="SvgjsTspan1755" dy="20" x="26.5"><tspan id="SvgjsTspan1756" style="text-decoration:;">首页</tspan></tspan></text></g></g><g id="SvgjsG1757" transform="translate(385.9987030029297,395.8307304382324)"><path id="SvgjsPath1758" d="M 0 4Q 0 0 4 0L 49 0Q 53 0 53 4L 53 38.00000858306885Q 53 42.00000858306885 49 42.00000858306885L 4 42.00000858306885Q 0 42.00000858306885 0 38.00000858306885Z" stroke="rgba(33,41,48,1)" stroke-width="2" fill-opacity="1" fill="#ffffff"></path><g id="SvgjsG1759"><text id="SvgjsText1760" font-family="微软雅黑" text-anchor="middle" font-size="16px" width="33px" fill="#323232" font-weight="400" align="middle" lineHeight="125%" anchor="middle" family="微软雅黑" size="16px" weight="400" font-style="" opacity="1" y="-2.999995708465576" transform="rotate(0)"><tspan id="SvgjsTspan1761" dy="20" x="26.5"><tspan id="SvgjsTspan1762" style="text-decoration:;">控制</tspan></tspan><tspan id="SvgjsTspan1763" dy="20" x="26.5"><tspan id="SvgjsTspan1764" style="text-decoration:;">台</tspan></tspan></text></g></g><g id="SvgjsG1765" transform="translate(183.4987030029297,395.8307304382324)"><path id="SvgjsPath1766" d="M 0 4Q 0 0 4 0L 49 0Q 53 0 53 4L 53 38.00000858306885Q 53 42.00000858306885 49 42.00000858306885L 4 42.00000858306885Q 0 42.00000858306885 0 38.00000858306885Z" stroke="rgba(33,41,48,1)" stroke-width="2" fill-opacity="1" fill="#ffffff"></path><g id="SvgjsG1767"><text id="SvgjsText1768" font-family="微软雅黑" text-anchor="middle" font-size="16px" width="33px" fill="#323232" font-weight="400" align="middle" lineHeight="125%" anchor="middle" family="微软雅黑" size="16px" weight="400" font-style="" opacity="1" y="7.000004291534424" transform="rotate(0)"><tspan id="SvgjsTspan1769" dy="20" x="26.5"><tspan id="SvgjsTspan1770" style="text-decoration:;">系统</tspan></tspan></text></g></g><g id="SvgjsG1771" transform="translate(250.9987030029297,395.8307304382324)"><path id="SvgjsPath1772" d="M 0 4Q 0 0 4 0L 49 0Q 53 0 53 4L 53 38.00000858306885Q 53 42.00000858306885 49 42.00000858306885L 4 42.00000858306885Q 0 42.00000858306885 0 38.00000858306885Z" stroke="rgba(33,41,48,1)" stroke-width="2" fill-opacity="1" fill="#ffffff"></path><g id="SvgjsG1773"><text id="SvgjsText1774" font-family="微软雅黑" text-anchor="middle" font-size="16px" width="33px" fill="#323232" font-weight="400" align="middle" lineHeight="125%" anchor="middle" family="微软雅黑" size="16px" weight="400" font-style="" opacity="1" y="-2.999995708465576" transform="rotate(0)"><tspan id="SvgjsTspan1775" dy="20" x="26.5"><tspan id="SvgjsTspan1776" style="text-decoration:;">国际</tspan></tspan><tspan id="SvgjsTspan1777" dy="20" x="26.5"><tspan id="SvgjsTspan1778" style="text-decoration:;">化</tspan></tspan></text></g></g><g id="SvgjsG1779" transform="translate(318.4987030029297,395.8307304382324)"><path id="SvgjsPath1780" d="M 0 4Q 0 0 4 0L 49 0Q 53 0 53 4L 53 38.00000858306885Q 53 42.00000858306885 49 42.00000858306885L 4 42.00000858306885Q 0 42.00000858306885 0 38.00000858306885Z" stroke="rgba(33,41,48,1)" stroke-width="2" fill-opacity="1" fill="#ffffff"></path><g id="SvgjsG1781"><text id="SvgjsText1782" font-family="微软雅黑" text-anchor="middle" font-size="16px" width="33px" fill="#323232" font-weight="400" align="middle" lineHeight="125%" anchor="middle" family="微软雅黑" size="16px" weight="400" font-style="" opacity="1" y="7.000004291534424" transform="rotate(0)"><tspan id="SvgjsTspan1783" dy="20" x="26.5"><tspan id="SvgjsTspan1784" style="text-decoration:;">授权</tspan></tspan></text></g></g><g id="SvgjsG1785"><path id="SvgjsPath1786" d="M297.9987030029297 100.83074188232422L326.9987030029297 100.83074188232422L326.9987030029297 365.8307304382324L142.4987030029297 365.8307304382324L142.4987030029297 392.2307304382324" stroke="#323232" stroke-width="2" fill="none" marker-end="url(#SvgjsMarker1787)"></path></g><g id="SvgjsG1789"><path id="SvgjsPath1790" d="M297.9987030029297 100.83074188232422L326.9987030029297 100.83074188232422L326.9987030029297 365.8307304382324L209.9987030029297 365.8307304382324L209.9987030029297 392.2307304382324" stroke="#323232" stroke-width="2" fill="none" marker-end="url(#SvgjsMarker1791)"></path></g><g id="SvgjsG1793"><path id="SvgjsPath1794" d="M297.9987030029297 100.83074188232422L326.9987030029297 100.83074188232422L326.9987030029297 365.8307304382324L277.4987030029297 365.8307304382324L277.4987030029297 392.2307304382324" stroke="#323232" stroke-width="2" fill="none" marker-end="url(#SvgjsMarker1795)"></path></g><g id="SvgjsG1797"><path id="SvgjsPath1798" d="M308.33203125 102.2343864440918L308.33203125 101.03255844116211L327.33203125 101.03255844116211L327.33203125 365.8307304382324L412.4987030029297 365.8307304382324L412.4987030029297 392.2307304382324" stroke="#323232" stroke-width="2" fill="none" marker-end="url(#SvgjsMarker1799)"></path></g><g id="SvgjsG1801"><path id="SvgjsPath1802" d="M344.9987030029297 366.2343864440918L344.9987030029297 381.0325584411621L344.9987030029297 381.0325584411621L344.9987030029297 392.2307304382324" stroke="#323232" stroke-width="2" fill="none" marker-end="url(#SvgjsMarker1803)"></path></g></svg>